HIERARCHY
ROOT joint_Root
{
	OFFSET 0.0 0.0 0.0
	CHANNELS 6 Xposition Yposition Zposition Zrotation Xrotation Yrotation 
	JOINT Hips
	{
		OFFSET 4.5925 91.4895 -427.239
		CHANNELS 6 Xposition Yposition Zposition Zrotation Xrotation Yrotation 
		JOINT Spine
		{
			OFFSET 15.7357 0.0 0.0
			CHANNELS 6 Xposition Yposition Zposition Zrotation Xrotation Yrotation 
			JOINT Chest
			{
				OFFSET 8.98455 -0.406207 0.0
				CHANNELS 6 Xposition Yposition Zposition Zrotation Xrotation Yrotation 
				JOINT Neck
				{
					OFFSET 16.3773 0.0 0.0
					CHANNELS 6 Xposition Yposition Zposition Zrotation Xrotation Yrotation 
					JOINT Head
					{
						OFFSET 6.45672 0.0 0.0
						CHANNELS 6 Xposition Yposition Zposition Zrotation Xrotation Yrotation 
						End Site
						{
							OFFSET 0.0 0.0 0.0
						}
					}
				}
				JOINT Shoulder_L
				{
					OFFSET 12.9942 -0.242716 4.98039
					CHANNELS 6 Xposition Yposition Zposition Zrotation Xrotation Yrotation 
					JOINT UpperArm_L
					{
						OFFSET 5.34809 0.0 0.0
						CHANNELS 6 Xposition Yposition Zposition Zrotation Xrotation Yrotation 
						JOINT LowerArm_L
						{
							OFFSET 24.3286 1.87007e-05 0.0
							CHANNELS 6 Xposition Yposition Zposition Zrotation Xrotation Yrotation 
							JOINT Hand_L
							{
								OFFSET 22.2916 0.0 0.0
								CHANNELS 6 Xposition Yposition Zposition Zrotation Xrotation Yrotation 
								End Site
								{
									OFFSET 0.0 0.0 0.0
								}
							}
						}
					}
				}
				JOINT Shoulder_R
				{
					OFFSET 12.9945 -0.242716 -4.98039
					CHANNELS 6 Xposition Yposition Zposition Zrotation Xrotation Yrotation 
					JOINT UpperArm_R
					{
						OFFSET -5.34813 0.0 0.0
						CHANNELS 6 Xposition Yposition Zposition Zrotation Xrotation Yrotation 
						JOINT LowerArm_R
						{
							OFFSET -24.3289 0.000322201 0.0
							CHANNELS 6 Xposition Yposition Zposition Zrotation Xrotation Yrotation 
							JOINT Hand_R
							{
								OFFSET -22.2915 -0.000108084 0.0
								CHANNELS 6 Xposition Yposition Zposition Zrotation Xrotation Yrotation 
								End Site
								{
									OFFSET 0.0 0.0 0.0
								}
							}
						}
					}
				}
			}
		}
		JOINT UpperLeg_L
		{
			OFFSET -2.19248 -6.46944 0.0
			CHANNELS 6 Xposition Yposition Zposition Zrotation Xrotation Yrotation 
			JOINT LowerLeg_L
			{
				OFFSET 39.0811 0.0 -1.23785e-05
				CHANNELS 6 Xposition Yposition Zposition Zrotation Xrotation Yrotation 
				JOINT Foot_L
				{
					OFFSET 40.9854 0.0 -1.26872e-05
					CHANNELS 6 Xposition Yposition Zposition Zrotation Xrotation Yrotation 
					JOINT Toes_L
					{
						OFFSET 11.7543 0.0 0.0
						CHANNELS 6 Xposition Yposition Zposition Zrotation Xrotation Yrotation 
						End Site
						{
							OFFSET 0.0 0.0 0.0
						}
					}
				}
			}
		}
		JOINT UpperLeg_R
		{
			OFFSET -2.19251 6.46944 0.0
			CHANNELS 6 Xposition Yposition Zposition Zrotation Xrotation Yrotation 
			JOINT LowerLeg_R
			{
				OFFSET -39.0811 -0.00228153 -0.0401928
				CHANNELS 6 Xposition Yposition Zposition Zrotation Xrotation Yrotation 
				JOINT Foot_R
				{
					OFFSET -40.9854 0.0 0.0
					CHANNELS 6 Xposition Yposition Zposition Zrotation Xrotation Yrotation 
					JOINT Toes_R
					{
						OFFSET -11.7543 0.0 0.0
						CHANNELS 6 Xposition Yposition Zposition Zrotation Xrotation Yrotation 
						End Site
						{
							OFFSET 0.0 0.0 0.0
						}
					}
				}
			}
		}
	}
}
MOTION
Frames:	4
Frame Time:	0.0333333
0.000000 0.000000 0.000000 0.000000 0.000000 -0.000000 -1.030350 89.781800 1.896650 88.845500 -3.053650 10.710800 15.735700 0.000005 -0.000001 88.697300 79.276500 -88.481600 8.984550 -0.406207 -0.000000 13.676700 -0.471117 0.487835 16.377300 -0.000001 -0.000001 5.386970 -4.294090 1.495860 6.456720 -0.000001 -0.000000 -1.463770 -3.618500 -2.012260 12.994200 -0.242716 4.980390 -91.504200 6.935270 -77.730600 5.348090 -0.000007 -0.000001 -61.541700 32.911700 -23.920200 24.328600 0.000019 0.000005 9.511900 23.335600 -22.928200 22.291600 -0.000001 0.000005 12.257200 5.290220 0.345045 12.994500 -0.242716 -4.980390 89.011700 11.241800 -84.943400 -5.348130 -0.000001 -0.000004 -58.203400 37.284900 -20.296000 -24.328900 0.000322 -0.000009 1.350710 3.955310 -18.885600 -22.291500 -0.000108 -0.000004 12.279300 5.414710 -3.421540 -2.192480 -6.469440 -0.000000 -174.329000 -10.598300 -0.432898 39.081100 -0.000007 -0.000012 -0.270932 0.381387 35.389900 40.985400 -0.000006 -0.000013 0.094307 3.583410 -74.047700 11.754300 -0.000000 0.000003 -0.000201 -0.001857 -16.647600 -2.192510 6.469440 -0.000001 174.886000 18.280000 -178.932000 -39.081100 -0.002282 -0.040193 -0.185498 0.277620 34.217200 -40.985400 0.000008 0.000006 4.438700 10.441900 -74.391900 -11.754300 -0.000006 -0.000006 -0.002219 -0.031422 -17.850800
0.000000 0.000000 0.000000 0.000000 0.000000 -0.000000 -1.016390 89.783500 1.856650 88.859400 -3.003990 10.724400 15.735700 0.000005 -0.000001 88.656200 79.250300 -88.430900 8.984550 -0.406207 -0.000000 13.728700 -0.486879 0.509327 16.377300 -0.000001 -0.000001 5.537480 -4.365140 1.599860 6.456720 -0.000001 -0.000000 -1.408640 -3.725760 -1.865420 12.994200 -0.242716 4.980390 -91.510200 6.951610 -77.711300 5.348090 -0.000007 -0.000001 -61.617300 31.810800 -24.016900 24.328600 0.000019 0.000005 9.568080 22.777500 -23.528000 22.291600 -0.000001 0.000005 12.529400 5.286770 0.440018 12.994500 -0.242716 -4.980390 89.013800 11.221100 -84.944700 -5.348130 -0.000001 -0.000004 -58.180900 37.300400 -20.300200 -24.328900 0.000322 -0.000009 1.343640 3.938980 -18.866000 -22.291500 -0.000108 -0.000004 12.271700 5.413770 -3.390340 -2.192480 -6.469440 -0.000000 -174.361000 -10.581000 -0.467972 39.081100 -0.000007 -0.000012 -0.268830 0.378247 35.402900 40.985400 -0.000006 -0.000013 0.108252 3.583210 -74.018000 11.754300 -0.000000 0.000003 -0.000209 -0.001920 -16.649900 -2.192510 6.469440 -0.000001 174.834000 18.325100 -178.937000 -39.081100 -0.002282 -0.040193 -0.196628 0.294063 34.210400 -40.985400 0.000008 0.000006 4.271200 10.495800 -74.324900 -11.754300 -0.000006 -0.000006 -0.002155 -0.030646 -17.819300
0.000000 0.000000 0.000000 0.000000 0.000000 -0.000000 -1.018900 89.795900 1.802490 88.860700 -2.897540 10.756900 15.735700 0.000005 -0.000001 88.595700 79.226200 -88.360100 8.984550 -0.406207 -0.000000 13.776600 -0.509823 0.532899 16.377300 -0.000001 -0.000001 5.744260 -4.476590 1.753350 6.456720 -0.000001 -0.000000 -1.317970 -3.821330 -1.679120 12.994200 -0.242716 4.980390 -91.512500 6.960040 -77.707300 5.348090 -0.000007 -0.000001 -61.355300 30.749100 -24.276800 24.328600 0.000019 0.000005 9.871690 22.267300 -24.666600 22.291600 -0.000001 0.000005 12.795300 5.285170 0.484408 12.994500 -0.242716 -4.980390 89.005500 11.233900 -84.908000 -5.348130 -0.000001 -0.000004 -58.126000 37.328200 -20.325300 -24.328900 0.000322 -0.000009 1.339020 3.940470 -18.799000 -22.291500 -0.000108 -0.000004 12.223300 5.413530 -3.382230 -2.192480 -6.469440 -0.000000 -174.375000 -10.505300 -0.478460 39.081100 -0.000007 -0.000012 -0.268412 0.378028 35.376400 40.985400 -0.000006 -0.000013 0.118787 3.609010 -73.957800 11.754300 -0.000000 0.000003 -0.000193 -0.001796 -16.645400 -2.192510 6.469440 -0.000001 174.834000 18.403200 -178.916000 -39.081100 -0.002282 -0.040193 -0.189381 0.283632 34.188800 -40.985400 0.000008 0.000006 4.373970 10.443400 -74.308200 -11.754300 -0.000006 -0.000006 -0.002218 -0.031416 -17.850600
0.000000 0.000000 0.000000 0.000000 0.000000 -0.000000 -1.026810 89.792800 1.762470 88.856200 -2.848880 10.774400 15.735700 0.000005 -0.000001 88.621100 79.195000 -88.369500 8.984550 -0.406207 -0.000000 13.839200 -0.500866 0.563961 16.377300 -0.000001 -0.000001 5.943800 -4.570030 1.894630 6.456720 -0.000001 -0.000000 -1.219520 -3.971210 -1.445480 12.994200 -0.242716 4.980390 -91.536700 7.003200 -77.591400 5.348090 -0.000007 -0.000001 -60.876400 29.516900 -24.701200 24.328600 0.000019 0.000005 10.444000 21.786400 -26.411100 22.291600 -0.000001 0.000005 13.117600 5.286050 0.459901 12.994500 -0.242716 -4.980390 88.998800 11.233100 -84.873400 -5.348130 -0.000001 -0.000004 -58.061200 37.274200 -20.379800 -24.328900 0.000322 -0.000009 1.327470 3.908500 -18.789900 -22.291500 -0.000108 -0.000004 12.224900 5.413240 -3.372770 -2.192480 -6.469440 -0.000000 -174.361000 -10.513900 -0.520824 39.081100 -0.000007 -0.000012 -0.267496 0.376155 35.418400 40.985400 -0.000006 -0.000013 0.142425 3.679830 -73.941700 11.754300 -0.000000 0.000003 -0.000192 -0.001786 -16.645000 -2.192510 6.469440 -0.000001 174.851000 18.401400 -178.941000 -39.081100 -0.002282 -0.040193 -0.192726 0.288251 34.217100 -40.985400 0.000008 0.000006 4.341620 10.394500 -74.287800 -11.754300 -0.000006 -0.000006 -0.002242 -0.031707 -17.862400
